<mxfile host="Electron" modified="2024-02-10T04:55:20.824Z" agent="Mozilla/5.0 (Windows NT 10.0; Win64; x64) AppleWebKit/537.36 (KHTML, like Gecko) draw.io/22.1.2 Chrome/114.0.5735.289 Electron/25.9.4 Safari/537.36" etag="52k0QyGQQEE3O-A9AcT3" version="22.1.2" type="device">
  <diagram name="PÃ¡gina-1" id="DVsJ-_wO2bPI3zHsYaNA">
    <mxGraphModel dx="774" dy="505" grid="1" gridSize="10" guides="1" tooltips="1" connect="1" arrows="1" fold="1" page="1" pageScale="1" pageWidth="827" pageHeight="1169" math="0" shadow="0">
      <root>
        <mxCell id="0" />
        <mxCell id="1" parent="0" />
        <mxCell id="vU9ZuqRH-iYOvebZDJCI-13" value="" style="edgeStyle=orthogonalEdgeStyle;rounded=0;orthogonalLoop=1;jettySize=auto;html=1;" edge="1" parent="1" source="vU9ZuqRH-iYOvebZDJCI-5" target="vU9ZuqRH-iYOvebZDJCI-9">
          <mxGeometry relative="1" as="geometry" />
        </mxCell>
        <mxCell id="vU9ZuqRH-iYOvebZDJCI-18" value="" style="edgeStyle=orthogonalEdgeStyle;rounded=0;orthogonalLoop=1;jettySize=auto;html=1;" edge="1" parent="1" source="vU9ZuqRH-iYOvebZDJCI-5" target="vU9ZuqRH-iYOvebZDJCI-14">
          <mxGeometry relative="1" as="geometry" />
        </mxCell>
        <mxCell id="vU9ZuqRH-iYOvebZDJCI-23" value="" style="edgeStyle=orthogonalEdgeStyle;rounded=0;orthogonalLoop=1;jettySize=auto;html=1;" edge="1" parent="1" source="vU9ZuqRH-iYOvebZDJCI-5" target="vU9ZuqRH-iYOvebZDJCI-19">
          <mxGeometry relative="1" as="geometry" />
        </mxCell>
        <mxCell id="vU9ZuqRH-iYOvebZDJCI-5" value="Agricola" style="swimlane;fontStyle=1;align=center;verticalAlign=top;childLayout=stackLayout;horizontal=1;startSize=26;horizontalStack=0;resizeParent=1;resizeParentMax=0;resizeLast=0;collapsible=1;marginBottom=0;whiteSpace=wrap;html=1;" vertex="1" parent="1">
          <mxGeometry x="330" y="120" width="260" height="128" as="geometry" />
        </mxCell>
        <mxCell id="vU9ZuqRH-iYOvebZDJCI-6" value="+ agroquimicos: Arraylist&lt;br&gt;+ cultivos: ArrayList" style="text;strokeColor=none;fillColor=none;align=left;verticalAlign=top;spacingLeft=4;spacingRight=4;overflow=hidden;rotatable=0;points=[[0,0.5],[1,0.5]];portConstraint=eastwest;whiteSpace=wrap;html=1;" vertex="1" parent="vU9ZuqRH-iYOvebZDJCI-5">
          <mxGeometry y="26" width="260" height="44" as="geometry" />
        </mxCell>
        <mxCell id="vU9ZuqRH-iYOvebZDJCI-7" value="" style="line;strokeWidth=1;fillColor=none;align=left;verticalAlign=middle;spacingTop=-1;spacingLeft=3;spacingRight=3;rotatable=0;labelPosition=right;points=[];portConstraint=eastwest;strokeColor=inherit;" vertex="1" parent="vU9ZuqRH-iYOvebZDJCI-5">
          <mxGeometry y="70" width="260" height="8" as="geometry" />
        </mxCell>
        <mxCell id="vU9ZuqRH-iYOvebZDJCI-8" value="+ puedeTratarEnfermedad: ArrayList&lt;br&gt;+ puedeTratar: ArrayList&amp;lt;Cultivo, String&amp;gt;" style="text;strokeColor=none;fillColor=none;align=left;verticalAlign=top;spacingLeft=4;spacingRight=4;overflow=hidden;rotatable=0;points=[[0,0.5],[1,0.5]];portConstraint=eastwest;whiteSpace=wrap;html=1;" vertex="1" parent="vU9ZuqRH-iYOvebZDJCI-5">
          <mxGeometry y="78" width="260" height="50" as="geometry" />
        </mxCell>
        <mxCell id="vU9ZuqRH-iYOvebZDJCI-9" value="ProductoQuimico" style="swimlane;fontStyle=1;align=center;verticalAlign=top;childLayout=stackLayout;horizontal=1;startSize=26;horizontalStack=0;resizeParent=1;resizeParentMax=0;resizeLast=0;collapsible=1;marginBottom=0;whiteSpace=wrap;html=1;" vertex="1" parent="1">
          <mxGeometry x="70" y="340" width="260" height="138" as="geometry" />
        </mxCell>
        <mxCell id="vU9ZuqRH-iYOvebZDJCI-10" value="+ nombre: String&lt;br&gt;+ cultivos: ArrayList&lt;br&gt;+ estadosPatologicos: ArrayList" style="text;strokeColor=none;fillColor=none;align=left;verticalAlign=top;spacingLeft=4;spacingRight=4;overflow=hidden;rotatable=0;points=[[0,0.5],[1,0.5]];portConstraint=eastwest;whiteSpace=wrap;html=1;" vertex="1" parent="vU9ZuqRH-iYOvebZDJCI-9">
          <mxGeometry y="26" width="260" height="54" as="geometry" />
        </mxCell>
        <mxCell id="vU9ZuqRH-iYOvebZDJCI-11" value="" style="line;strokeWidth=1;fillColor=none;align=left;verticalAlign=middle;spacingTop=-1;spacingLeft=3;spacingRight=3;rotatable=0;labelPosition=right;points=[];portConstraint=eastwest;strokeColor=inherit;" vertex="1" parent="vU9ZuqRH-iYOvebZDJCI-9">
          <mxGeometry y="80" width="260" height="8" as="geometry" />
        </mxCell>
        <mxCell id="vU9ZuqRH-iYOvebZDJCI-12" value="+ puedeTratar(String estado): boolean&lt;br&gt;+&amp;nbsp;" style="text;strokeColor=none;fillColor=none;align=left;verticalAlign=top;spacingLeft=4;spacingRight=4;overflow=hidden;rotatable=0;points=[[0,0.5],[1,0.5]];portConstraint=eastwest;whiteSpace=wrap;html=1;" vertex="1" parent="vU9ZuqRH-iYOvebZDJCI-9">
          <mxGeometry y="88" width="260" height="50" as="geometry" />
        </mxCell>
        <mxCell id="vU9ZuqRH-iYOvebZDJCI-14" value="Enfermedad" style="swimlane;fontStyle=1;align=center;verticalAlign=top;childLayout=stackLayout;horizontal=1;startSize=26;horizontalStack=0;resizeParent=1;resizeParentMax=0;resizeLast=0;collapsible=1;marginBottom=0;whiteSpace=wrap;html=1;" vertex="1" parent="1">
          <mxGeometry x="690" y="260" width="260" height="128" as="geometry" />
        </mxCell>
        <mxCell id="vU9ZuqRH-iYOvebZDJCI-15" value="+ nombre: String&lt;br&gt;+ estosPatologicos: Arraylist" style="text;strokeColor=none;fillColor=none;align=left;verticalAlign=top;spacingLeft=4;spacingRight=4;overflow=hidden;rotatable=0;points=[[0,0.5],[1,0.5]];portConstraint=eastwest;whiteSpace=wrap;html=1;" vertex="1" parent="vU9ZuqRH-iYOvebZDJCI-14">
          <mxGeometry y="26" width="260" height="44" as="geometry" />
        </mxCell>
        <mxCell id="vU9ZuqRH-iYOvebZDJCI-16" value="" style="line;strokeWidth=1;fillColor=none;align=left;verticalAlign=middle;spacingTop=-1;spacingLeft=3;spacingRight=3;rotatable=0;labelPosition=right;points=[];portConstraint=eastwest;strokeColor=inherit;" vertex="1" parent="vU9ZuqRH-iYOvebZDJCI-14">
          <mxGeometry y="70" width="260" height="8" as="geometry" />
        </mxCell>
        <mxCell id="vU9ZuqRH-iYOvebZDJCI-17" value="+ puedeTratarEnfermedad: ArrayList&lt;br&gt;+ puedeTratar: ArrayList&amp;lt;Cultivo, String&amp;gt;" style="text;strokeColor=none;fillColor=none;align=left;verticalAlign=top;spacingLeft=4;spacingRight=4;overflow=hidden;rotatable=0;points=[[0,0.5],[1,0.5]];portConstraint=eastwest;whiteSpace=wrap;html=1;" vertex="1" parent="vU9ZuqRH-iYOvebZDJCI-14">
          <mxGeometry y="78" width="260" height="50" as="geometry" />
        </mxCell>
        <mxCell id="vU9ZuqRH-iYOvebZDJCI-24" value="" style="rounded=0;orthogonalLoop=1;jettySize=auto;html=1;edgeStyle=elbowEdgeStyle;" edge="1" parent="1" source="vU9ZuqRH-iYOvebZDJCI-19" target="vU9ZuqRH-iYOvebZDJCI-12">
          <mxGeometry relative="1" as="geometry" />
        </mxCell>
        <mxCell id="vU9ZuqRH-iYOvebZDJCI-19" value="Cultivo" style="swimlane;fontStyle=1;align=center;verticalAlign=top;childLayout=stackLayout;horizontal=1;startSize=26;horizontalStack=0;resizeParent=1;resizeParentMax=0;resizeLast=0;collapsible=1;marginBottom=0;whiteSpace=wrap;html=1;" vertex="1" parent="1">
          <mxGeometry x="390" y="340" width="260" height="78" as="geometry" />
        </mxCell>
        <mxCell id="vU9ZuqRH-iYOvebZDJCI-20" value="+ nombre: String&amp;nbsp;&lt;br&gt;+ enfermedadesFrecuentes: Arraylist" style="text;strokeColor=none;fillColor=none;align=left;verticalAlign=top;spacingLeft=4;spacingRight=4;overflow=hidden;rotatable=0;points=[[0,0.5],[1,0.5]];portConstraint=eastwest;whiteSpace=wrap;html=1;" vertex="1" parent="vU9ZuqRH-iYOvebZDJCI-19">
          <mxGeometry y="26" width="260" height="44" as="geometry" />
        </mxCell>
        <mxCell id="vU9ZuqRH-iYOvebZDJCI-21" value="" style="line;strokeWidth=1;fillColor=none;align=left;verticalAlign=middle;spacingTop=-1;spacingLeft=3;spacingRight=3;rotatable=0;labelPosition=right;points=[];portConstraint=eastwest;strokeColor=inherit;" vertex="1" parent="vU9ZuqRH-iYOvebZDJCI-19">
          <mxGeometry y="70" width="260" height="8" as="geometry" />
        </mxCell>
      </root>
    </mxGraphModel>
  </diagram>
</mxfile>
